STARTFONT 2.1
FONT -DEC-Terminal-Medium-R-Narrow--39-280-100-100-C-140-iso8859-2
SIZE 28 100 100
FONTBOUNDINGBOX 14 40 0 -10

STARTPROPERTIES 24
FOUNDRY "Monotype"
FAMILY_NAME "VT"
WEIGHT_NAME "Regular"
SLANT "R"
SETWIDTH_NAME "Narrow"
ADD_STYLE_NAME ""
PIXEL_SIZE 39
POINT_SIZE 280
RESOLUTION_X 100
RESOLUTION_Y 100
SPACING "C"
AVERAGE_WIDTH 140
CHARSET_REGISTRY "iso8859"
CHARSET_ENCODING "2"
FACE_NAME "VT Narrow ISO Latin2"
_DEC_DEVICE_FONTNAMES "PS=vt-narrow-isolatin2"
COPYRIGHT "Copyright (c) 1993 Monotype Typography Ltd."
CAP_HEIGHT 22
X_HEIGHT 17
WEIGHT 10
QUAD_WIDTH 14
DEFAULT_CHAR 160
FONT_DESCENT 10
FONT_ASCENT 30
ENDPROPERTIES

CHARS 191

STARTCHAR space
ENCODING 32
SWIDTH 361 0
DWIDTH 14 0
BBX 14 40 0 -10
BITMAP
0000
0000
0000
0000
0000
0000
0000
0000
0000
0000
0000
0000
0000
0000
0000
0000
0000
0000
0000
0000
0000
0000
0000
0000
0000
0000
0000
0000
0000
0000
0000
0000
0000
0000
0000
0000
0000
0000
0000
0000
ENDCHAR

STARTCHAR exclam
ENCODING 33
SWIDTH 361 0
DWIDTH 14 0
BBX 14 40 0 -10
BITMAP
0000
0000
0000
0000
0000
0000
0000
0000
0300
0300
0300
0300
0300
0300
0300
0300
0300
0300
0300
0300
0300
0300
0000
0000
0000
0000
0700
0F80
0F80
0700
0000
0000
0000
0000
0000
0000
0000
0000
0000
0000
ENDCHAR

STARTCHAR quotedbl
ENCODING 34
SWIDTH 361 0
DWIDTH 14 0
BBX 14 40 0 -10
BITMAP
0000
0000
0000
0000
0000
0000
0000
0000
0CC0
0CC0
0CC0
0CC0
0CC0
0CC0
0CC0
0CC0
0000
0000
0000
0000
0000
0000
0000
0000
0000
0000
0000
0000
0000
0000
0000
0000
0000
0000
0000
0000
0000
0000
0000
0000
ENDCHAR

STARTCHAR numbersign
ENCODING 35
SWIDTH 361 0
DWIDTH 14 0
BBX 14 40 0 -10
BITMAP
0000
0000
0000
0000
0000
0000
0000
0000
0CC0
0CC0
0CC0
0CC0
0CC0
0CC0
0CC0
0CC0
0CC0
7FF0
7FF0
1980
1980
1980
1980
7FF0
7FF0
1980
1980
1980
1980
1980
1980
1980
1980
1980
0000
0000
0000
0000
0000
0000
ENDCHAR

STARTCHAR dollar
ENCODING 36
SWIDTH 361 0
DWIDTH 14 0
BBX 14 40 0 -10
BITMAP
0000
0000
0000
0000
0000
0000
0300
0300
0300
0300
07B0
1FF0
1870
3030
3030
3030
3000
1C00
0E00
0FC0
03F0
0070
0038
0018
1818
1818
1818
1C38
1FF0
1BE0
0180
0180
0180
0180
0180
0180
0000
0000
0000
0000
ENDCHAR

STARTCHAR percent
ENCODING 37
SWIDTH 361 0
DWIDTH 14 0
BBX 14 40 0 -10
BITMAP
0000
0000
0000
0000
0000
0000
0000
0000
3C00
7E00
C300
C300
C300
C300
C300
7E08
3C38
00F0
03C0
0F00
3C00
F0F0
C1F8
030C
030C
030C
030C
030C
01F8
00F0
0000
0000
0000
0000
0000
0000
0000
0000
0000
0000
ENDCHAR

STARTCHAR ampersand
ENCODING 38
SWIDTH 361 0
DWIDTH 14 0
BBX 14 40 0 -10
BITMAP
0000
0000
0000
0000
0000
0000
0000
0000
0740
07C0
0CC0
0CC0
0C00
0C00
0C00
0C00
0600
0600
0E00
1E30
3330
3320
31A0
31A0
30E0
30C0
30E0
39E0
1FB0
0F30
0000
0000
0000
0000
0000
0000
0000
0000
0000
0000
ENDCHAR

STARTCHAR quoteright
ENCODING 39
SWIDTH 361 0
DWIDTH 14 0
BBX 14 40 0 -10
BITMAP
0000
0000
03C0
03C0
0780
0700
0E00
0E00
1C00
1800
0000
0000
0000
0000
0000
0000
0000
0000
0000
0000
0000
0000
0000
0000
0000
0000
0000
0000
0000
0000
0000
0000
0000
0000
0000
0000
0000
0000
0000
0000
ENDCHAR

STARTCHAR parenleft
ENCODING 40
SWIDTH 361 0
DWIDTH 14 0
BBX 14 40 0 -10
BITMAP
0000
0000
00C0
00C0
0180
0180
0300
0300
0600
0600
0600
0600
0C00
0C00
0C00
0C00
0C00
0C00
0C00
0C00
0C00
0C00
0C00
0C00
0600
0600
0600
0600
0300
0300
0180
0180
00C0
00C0
0000
0000
0000
0000
0000
0000
ENDCHAR

STARTCHAR parenright
ENCODING 41
SWIDTH 361 0
DWIDTH 14 0
BBX 14 40 0 -10
BITMAP
0000
0000
0C00
0C00
0600
0600
0300
0300
0180
0180
0180
0180
00C0
00C0
00C0
00C0
00C0
00C0
00C0
00C0
00C0
00C0
00C0
00C0
0180
0180
0180
0180
0300
0300
0600
0600
0C00
0C00
0000
0000
0000
0000
0000
0000
ENDCHAR

STARTCHAR asterisk
ENCODING 42
SWIDTH 361 0
DWIDTH 14 0
BBX 14 40 0 -10
BITMAP
0000
0000
0000
0000
0000
0000
0000
0000
0000
0000
0000
0000
0000
0300
0300
0300
3330
3FF0
1FE0
0780
0FC0
1CE0
3870
3030
0000
0000
0000
0000
0000
0000
0000
0000
0000
0000
0000
0000
0000
0000
0000
0000
ENDCHAR

STARTCHAR plus
ENCODING 43
SWIDTH 361 0
DWIDTH 14 0
BBX 14 40 0 -10
BITMAP
0000
0000
0000
0000
0000
0000
0000
0000
0000
0000
0000
0000
0300
0300
0300
0300
0300
0300
3FF0
3FF0
0300
0300
0300
0300
0300
0300
0000
0000
0000
0000
0000
0000
0000
0000
0000
0000
0000
0000
0000
0000
ENDCHAR

STARTCHAR comma
ENCODING 44
SWIDTH 361 0
DWIDTH 14 0
BBX 14 40 0 -10
BITMAP
0000
0000
0000
0000
0000
0000
0000
0000
0000
0000
0000
0000
0000
0000
0000
0000
0000
0000
0000
0000
0000
0000
0000
0000
0000
0000
03C0
0380
0700
0700
0E00
0C00
1C00
1800
0000
0000
0000
0000
0000
0000
ENDCHAR

STARTCHAR minus
ENCODING 45
SWIDTH 361 0
DWIDTH 14 0
BBX 14 40 0 -10
BITMAP
0000
0000
0000
0000
0000
0000
0000
0000
0000
0000
0000
0000
0000
0000
0000
0000
0000
0000
0000
0000
3FF0
3FF0
0000
0000
0000
0000
0000
0000
0000
0000
0000
0000
0000
0000
0000
0000
0000
0000
0000
0000
ENDCHAR

STARTCHAR period
ENCODING 46
SWIDTH 361 0
DWIDTH 14 0
BBX 14 40 0 -10
BITMAP
0000
0000
0000
0000
0000
0000
0000
0000
0000
0000
0000
0000
0000
0000
0000
0000
0000
0000
0000
0000
0000
0000
0000
0000
0000
0000
0700
0F80
0F80
0700
0000
0000
0000
0000
0000
0000
0000
0000
0000
0000
ENDCHAR

STARTCHAR slash
ENCODING 47
SWIDTH 361 0
DWIDTH 14 0
BBX 14 40 0 -10
BITMAP
0000
0000
0000
0000
0000
0000
0030
0030
0060
0060
0060
0060
00C0
00C0
00C0
0180
0180
0180
0180
0300
0300
0300
0600
0600
0600
0C00
0C00
0C00
0C00
1800
1800
1800
0000
0000
0000
0000
0000
0000
0000
0000
ENDCHAR

STARTCHAR zero
ENCODING 48
SWIDTH 361 0
DWIDTH 14 0
BBX 14 40 0 -10
BITMAP
0000
0000
0000
0000
0000
0000
0000
0000
0780
1FE0
1860
3030
3030
3030
3030
3030
3030
3030
3030
3030
3030
3030
3030
3030
3030
3030
3030
1860
1FE0
0780
0000
0000
0000
0000
0000
0000
0000
0000
0000
0000
ENDCHAR

STARTCHAR one
ENCODING 49
SWIDTH 361 0
DWIDTH 14 0
BBX 14 40 0 -10
BITMAP
0000
0000
0000
0000
0000
0000
0000
0000
0300
0300
3F00
3F00
0300
0300
0300
0300
0300
0300
0300
0300
0300
0300
0300
0300
0300
0300
0300
0300
3FF0
3FF0
0000
0000
0000
0000
0000
0000
0000
0000
0000
0000
ENDCHAR

STARTCHAR two
ENCODING 50
SWIDTH 361 0
DWIDTH 14 0
BBX 14 40 0 -10
BITMAP
0000
0000
0000
0000
0000
0000
0000
0000
07C0
1FE0
1870
3030
3030
3030
0030
0030
0060
0060
00C0
00C0
0180
0300
0300
0600
0E00
0C00
1830
3830
3FF0
3FF0
0000
0000
0000
0000
0000
0000
0000
0000
0000
0000
ENDCHAR

STARTCHAR three
ENCODING 51
SWIDTH 361 0
DWIDTH 14 0
BBX 14 40 0 -10
BITMAP
0000
0000
0000
0000
0000
0000
0000
0000
0FC0
1FE0
3060
3030
0030
0030
0030
0030
0060
03E0
03C0
0060
0030
0030
0030
0030
0030
0030
3030
3860
1FE0
07C0
0000
0000
0000
0000
0000
0000
0000
0000
0000
0000
ENDCHAR

STARTCHAR four
ENCODING 52
SWIDTH 361 0
DWIDTH 14 0
BBX 14 40 0 -10
BITMAP
0000
0000
0000
0000
0000
0000
0000
0000
01C0
01C0
03C0
03C0
06C0
06C0
04C0
0CC0
08C0
18C0
10C0
30C0
30C0
60C0
7FF0
7FF0
00C0
00C0
00C0
00C0
07F0
07F0
0000
0000
0000
0000
0000
0000
0000
0000
0000
0000
ENDCHAR

STARTCHAR five
ENCODING 53
SWIDTH 361 0
DWIDTH 14 0
BBX 14 40 0 -10
BITMAP
0000
0000
0000
0000
0000
0000
0000
0000
3FF0
3FF0
3000
3000
3000
3000
3000
3780
3FE0
3860
3030
0030
0030
0030
0030
0030
0030
0030
3030
3860
1FE0
0780
0000
0000
0000
0000
0000
0000
0000
0000
0000
0000
ENDCHAR

STARTCHAR six
ENCODING 54
SWIDTH 361 0
DWIDTH 14 0
BBX 14 40 0 -10
BITMAP
0000
0000
0000
0000
0000
0000
0000
0000
01F0
07F0
0E00
0C00
1800
1800
1800
3000
3000
37C0
3FE0
3860
3030
3030
3030
3030
3030
3030
3030
1860
1FE0
0FC0
0000
0000
0000
0000
0000
0000
0000
0000
0000
0000
ENDCHAR

STARTCHAR seven
ENCODING 55
SWIDTH 361 0
DWIDTH 14 0
BBX 14 40 0 -10
BITMAP
0000
0000
0000
0000
0000
0000
0000
0000
3FF0
3FF0
3030
3030
0060
0060
0060
00C0
00C0
00C0
0180
0180
0180
0300
0300
0300
0600
0600
0600
0C00
0C00
0C00
0000
0000
0000
0000
0000
0000
0000
0000
0000
0000
ENDCHAR

STARTCHAR eight
ENCODING 56
SWIDTH 361 0
DWIDTH 14 0
BBX 14 40 0 -10
BITMAP
0000
0000
0000
0000
0000
0000
0000
0000
0780
1FE0
1860
3030
3030
3030
3030
3030
1860
0FC0
0FC0
1860
1820
3030
3030
3030
3030
3030
3030
1860
1FE0
0780
0000
0000
0000
0000
0000
0000
0000
0000
0000
0000
ENDCHAR

STARTCHAR nine
ENCODING 57
SWIDTH 361 0
DWIDTH 14 0
BBX 14 40 0 -10
BITMAP
0000
0000
0000
0000
0000
0000
0000
0000
0FC0
1FE0
1860
3030
3030
3030
3030
3030
3030
3030
1870
1FF0
0FB0
0030
0030
0060
0060
0060
00C0
01C0
3F80
3E00
0000
0000
0000
0000
0000
0000
0000
0000
0000
0000
ENDCHAR

STARTCHAR colon
ENCODING 58
SWIDTH 361 0
DWIDTH 14 0
BBX 14 40 0 -10
BITMAP
0000
0000
0000
0000
0000
0000
0000
0000
0000
0000
0000
0000
0000
0000
0700
0F80
0F80
0700
0000
0000
0000
0000
0000
0000
0000
0000
0700
0F80
0F80
0700
0000
0000
0000
0000
0000
0000
0000
0000
0000
0000
ENDCHAR

STARTCHAR semicolon
ENCODING 59
SWIDTH 361 0
DWIDTH 14 0
BBX 14 40 0 -10
BITMAP
0000
0000
0000
0000
0000
0000
0000
0000
0000
0000
0000
0000
0000
0000
01C0
03E0
03E0
01C0
0000
0000
0000
0000
0000
0000
0000
0000
03C0
0380
0700
0700
0E00
0C00
1C00
1800
0000
0000
0000
0000
0000
0000
ENDCHAR

STARTCHAR less
ENCODING 60
SWIDTH 361 0
DWIDTH 14 0
BBX 14 40 0 -10
BITMAP
0000
0000
0000
0000
0000
0000
0000
0000
0000
0000
0000
0000
0000
0018
0078
01E0
0780
1E00
7800
E000
7800
1E00
0780
01E0
0078
0018
0000
0000
0000
0000
0000
0000
0000
0000
0000
0000
0000
0000
0000
0000
ENDCHAR

STARTCHAR equal
ENCODING 61
SWIDTH 361 0
DWIDTH 14 0
BBX 14 40 0 -10
BITMAP
0000
0000
0000
0000
0000
0000
0000
0000
0000
0000
0000
0000
0000
0000
0000
3FF0
3FF0
0000
0000
0000
0000
3FF0
3FF0
0000
0000
0000
0000
0000
0000
0000
0000
0000
0000
0000
0000
0000
0000
0000
0000
0000
ENDCHAR

STARTCHAR greater
ENCODING 62
SWIDTH 361 0
DWIDTH 14 0
BBX 14 40 0 -10
BITMAP
0000
0000
0000
0000
0000
0000
0000
0000
0000
0000
0000
0000
0000
C000
F000
3C00
0F00
03C0
00F0
0038
00F0
03C0
0F00
3C00
F000
C000
0000
0000
0000
0000
0000
0000
0000
0000
0000
0000
0000
0000
0000
0000
ENDCHAR

STARTCHAR question
ENCODING 63
SWIDTH 361 0
DWIDTH 14 0
BBX 14 40 0 -10
BITMAP
0000
0000
0000
0000
0000
0000
0000
0000
0FC0
1FE0
3070
3030
3030
3030
0060
00E0
0180
0180
0300
0300
0300
0300
0000
0000
0000
0000
0700
0F80
0F80
0700
0000
0000
0000
0000
0000
0000
0000
0000
0000
0000
ENDCHAR

STARTCHAR at
ENCODING 64
SWIDTH 361 0
DWIDTH 14 0
BBX 14 40 0 -10
BITMAP
0000
0000
0000
0000
0000
0000
0F80
3FC0
3060
6060
6060
6060
6060
6060
61E0
63E0
6660
6660
6660
6660
6660
6660
6660
6660
67F8
63F8
6000
6000
6000
7000
3018
3838
1FF0
0FE0
0000
0000
0000
0000
0000
0000
ENDCHAR

STARTCHAR A
ENCODING 65
SWIDTH 361 0
DWIDTH 14 0
BBX 14 40 0 -10
BITMAP
0000
0000
0000
0000
0000
0000
0000
0000
0780
0780
0780
0480
0CC0
0CC0
0CC0
0CC0
0CC0
0CC0
1860
1860
1860
1860
1FE0
1FE0
3030
3030
3030
3030
FCFC
FCFC
0000
0000
0000
0000
0000
0000
0000
0000
0000
0000
ENDCHAR

STARTCHAR B
ENCODING 66
SWIDTH 361 0
DWIDTH 14 0
BBX 14 40 0 -10
BITMAP
0000
0000
0000
0000
0000
0000
0000
0000
7FE0
7FF0
1838
1818
1818
1818
1818
1818
1818
1830
1FE0
1FF0
1838
1818
1818
1818
1818
1818
1818
1838
7FF0
7FE0
0000
0000
0000
0000
0000
0000
0000
0000
0000
0000
ENDCHAR

STARTCHAR C
ENCODING 67
SWIDTH 361 0
DWIDTH 14 0
BBX 14 40 0 -10
BITMAP
0000
0000
0000
0000
0000
0000
0000
0000
0730
1FB0
18F0
3070
3030
3030
3000
3000
3000
3000
3000
3000
3000
3000
3000
3000
3000
3000
3030
1860
1FE0
0780
0000
0000
0000
0000
0000
0000
0000
0000
0000
0000
ENDCHAR

STARTCHAR D
ENCODING 68
SWIDTH 361 0
DWIDTH 14 0
BBX 14 40 0 -10
BITMAP
0000
0000
0000
0000
0000
0000
0000
0000
7FC0
7FF0
1830
1818
1818
1818
1818
1818
1818
1818
1818
1818
1818
1818
1818
1818
1818
1818
1818
1830
7FF0
7FC0
0000
0000
0000
0000
0000
0000
0000
0000
0000
0000
ENDCHAR

STARTCHAR E
ENCODING 69
SWIDTH 361 0
DWIDTH 14 0
BBX 14 40 0 -10
BITMAP
0000
0000
0000
0000
0000
0000
0000
0000
7FF8
7FF8
1818
1818
1818
1818
1800
1800
1860
1860
1FE0
1FE0
1860
1860
1800
1800
1818
1818
1818
1818
7FF8
7FF8
0000
0000
0000
0000
0000
0000
0000
0000
0000
0000
ENDCHAR

STARTCHAR F
ENCODING 70
SWIDTH 361 0
DWIDTH 14 0
BBX 14 40 0 -10
BITMAP
0000
0000
0000
0000
0000
0000
0000
0000
7FF8
7FF8
1818
1818
1818
1818
1800
1800
1860
1860
1FE0
1FE0
1860
1860
1800
1800
1800
1800
1800
1800
7E00
7E00
0000
0000
0000
0000
0000
0000
0000
0000
0000
0000
ENDCHAR

STARTCHAR G
ENCODING 71
SWIDTH 361 0
DWIDTH 14 0
BBX 14 40 0 -10
BITMAP
0000
0000
0000
0000
0000
0000
0000
0000
0E60
3F60
31E0
60E0
6060
6060
6000
6000
6000
6000
6000
6000
61F8
61F8
6060
6060
6060
6060
6060
3060
3FE0
0F80
0000
0000
0000
0000
0000
0000
0000
0000
0000
0000
ENDCHAR

STARTCHAR H
ENCODING 72
SWIDTH 361 0
DWIDTH 14 0
BBX 14 40 0 -10
BITMAP
0000
0000
0000
0000
0000
0000
0000
0000
FCFC
FCFC
3030
3030
3030
3030
3030
3030
3030
3FF0
3FF0
3030
3030
3030
3030
3030
3030
3030
3030
3030
FCFC
FCFC
0000
0000
0000
0000
0000
0000
0000
0000
0000
0000
ENDCHAR

STARTCHAR I
ENCODING 73
SWIDTH 361 0
DWIDTH 14 0
BBX 14 40 0 -10
BITMAP
0000
0000
0000
0000
0000
0000
0000
0000
3FF0
3FF0
0300
0300
0300
0300
0300
0300
0300
0300
0300
0300
0300
0300
0300
0300
0300
0300
0300
0300
3FF0
3FF0
0000
0000
0000
0000
0000
0000
0000
0000
0000
0000
ENDCHAR

STARTCHAR J
ENCODING 74
SWIDTH 361 0
DWIDTH 14 0
BBX 14 40 0 -10
BITMAP
0000
0000
0000
0000
0000
0000
0000
0000
07F8
07F8
0060
0060
0060
0060
0060
0060
0060
0060
0060
0060
6060
6060
6060
6060
6060
6060
6060
70E0
3FC0
1F80
0000
0000
0000
0000
0000
0000
0000
0000
0000
0000
ENDCHAR

STARTCHAR K
ENCODING 75
SWIDTH 361 0
DWIDTH 14 0
BBX 14 40 0 -10
BITMAP
0000
0000
0000
0000
0000
0000
0000
0000
FC3C
FC3C
3060
3060
30C0
30C0
3180
3180
3300
3300
3780
3580
3D80
38C0
30C0
30C0
3060
3060
3060
3030
FC3C
FC3C
0000
0000
0000
0000
0000
0000
0000
0000
0000
0000
ENDCHAR

STARTCHAR L
ENCODING 76
SWIDTH 361 0
DWIDTH 14 0
BBX 14 40 0 -10
BITMAP
0000
0000
0000
0000
0000
0000
0000
0000
7E00
7E00
1800
1800
1800
1800
1800
1800
1800
1800
1800
1800
1800
1800
1800
1800
1818
1818
1818
1818
7FF8
7FF8
0000
0000
0000
0000
0000
0000
0000
0000
0000
0000
ENDCHAR

STARTCHAR M
ENCODING 77
SWIDTH 361 0
DWIDTH 14 0
BBX 14 40 0 -10
BITMAP
0000
0000
0000
0000
0000
0000
0000
0000
F03C
F03C
3030
3870
3870
3870
3870
3CF0
34B0
34B0
34B0
37B0
3330
3330
3330
3030
3030
3030
3030
3030
FCFC
FCFC
0000
0000
0000
0000
0000
0000
0000
0000
0000
0000
ENDCHAR

STARTCHAR N
ENCODING 78
SWIDTH 361 0
DWIDTH 14 0
BBX 14 40 0 -10
BITMAP
0000
0000
0000
0000
0000
0000
0000
0000
F8FC
F8FC
3830
3C30
3C30
3430
3630
3630
3230
3330
3330
3130
31B0
31B0
30B0
30F0
30F0
3070
3070
3070
FC30
FC30
0000
0000
0000
0000
0000
0000
0000
0000
0000
0000
ENDCHAR

STARTCHAR O
ENCODING 79
SWIDTH 361 0
DWIDTH 14 0
BBX 14 40 0 -10
BITMAP
0000
0000
0000
0000
0000
0000
0000
0000
0780
1FE0
1860
3030
3030
3030
3030
3030
3030
3030
3030
3030
3030
3030
3030
3030
3030
3030
3030
1860
1FE0
0780
0000
0000
0000
0000
0000
0000
0000
0000
0000
0000
ENDCHAR

STARTCHAR P
ENCODING 80
SWIDTH 361 0
DWIDTH 14 0
BBX 14 40 0 -10
BITMAP
0000
0000
0000
0000
0000
0000
0000
0000
7FC0
7FF0
1830
1818
1818
1818
1818
1818
1818
1818
1818
1830
1FF0
1FE0
1800
1800
1800
1800
1800
1800
7F80
7F80
0000
0000
0000
0000
0000
0000
0000
0000
0000
0000
ENDCHAR

STARTCHAR Q
ENCODING 81
SWIDTH 361 0
DWIDTH 14 0
BBX 14 40 0 -10
BITMAP
0000
0000
0000
0000
0000
0000
0000
0000
0780
1FE0
1860
3030
3030
3030
3030
3030
3030
3030
3030
3030
3030
3030
3030
3030
3030
3030
3030
1860
1FE0
0780
0400
0C00
0E30
1FB0
31E0
30C0
0000
0000
0000
0000
ENDCHAR

STARTCHAR R
ENCODING 82
SWIDTH 361 0
DWIDTH 14 0
BBX 14 40 0 -10
BITMAP
0000
0000
0000
0000
0000
0000
0000
0000
FFC0
FFE0
3060
3030
3030
3030
3030
3030
3030
3060
3FE0
3FC0
30C0
30C0
3060
3060
3060
3030
3030
3030
FC1C
FC1C
0000
0000
0000
0000
0000
0000
0000
0000
0000
0000
ENDCHAR

STARTCHAR S
ENCODING 83
SWIDTH 361 0
DWIDTH 14 0
BBX 14 40 0 -10
BITMAP
0000
0000
0000
0000
0000
0000
0000
0000
07B0
1FF0
1870
3030
3030
3030
3000
3000
3800
1E00
0FC0
03E0
0070
0030
0030
0030
3030
3030
3030
3870
3FE0
37C0
0000
0000
0000
0000
0000
0000
0000
0000
0000
0000
ENDCHAR

STARTCHAR T
ENCODING 84
SWIDTH 361 0
DWIDTH 14 0
BBX 14 40 0 -10
BITMAP
0000
0000
0000
0000
0000
0000
0000
0000
7FF8
7FF8
6318
6318
6318
6318
6318
6318
0300
0300
0300
0300
0300
0300
0300
0300
0300
0300
0300
0300
1FE0
1FE0
0000
0000
0000
0000
0000
0000
0000
0000
0000
0000
ENDCHAR

STARTCHAR U
ENCODING 85
SWIDTH 361 0
DWIDTH 14 0
BBX 14 40 0 -10
BITMAP
0000
0000
0000
0000
0000
0000
0000
0000
FCFC
FCFC
3030
3030
3030
3030
3030
3030
3030
3030
3030
3030
3030
3030
3030
3030
3030
3030
3030
1860
1FE0
0780
0000
0000
0000
0000
0000
0000
0000
0000
0000
0000
ENDCHAR

STARTCHAR V
ENCODING 86
SWIDTH 361 0
DWIDTH 14 0
BBX 14 40 0 -10
BITMAP
0000
0000
0000
0000
0000
0000
0000
0000
FCFC
FCFC
3030
3030
3030
3030
1860
1860
1860
1860
1860
1860
0CC0
0CC0
0CC0
0CC0
0CC0
0480
0780
0780
0300
0300
0000
0000
0000
0000
0000
0000
0000
0000
0000
0000
ENDCHAR

STARTCHAR W
ENCODING 87
SWIDTH 361 0
DWIDTH 14 0
BBX 14 40 0 -10
BITMAP
0000
0000
0000
0000
0000
0000
0000
0000
F03C
F03C
C00C
C00C
C30C
C30C
C30C
C30C
C78C
C78C
6498
6498
6CD8
6CD8
6858
6858
7878
7878
3030
3030
3030
3030
0000
0000
0000
0000
0000
0000
0000
0000
0000
0000
ENDCHAR

STARTCHAR X
ENCODING 88
SWIDTH 361 0
DWIDTH 14 0
BBX 14 40 0 -10
BITMAP
0000
0000
0000
0000
0000
0000
0000
0000
F03C
F03C
3030
3030
1860
1860
0CC0
0CC0
0780
0780
0300
0300
0780
0780
0CC0
0CC0
1860
1860
3030
3030
F03C
F03C
0000
0000
0000
0000
0000
0000
0000
0000
0000
0000
ENDCHAR

STARTCHAR Y
ENCODING 89
SWIDTH 361 0
DWIDTH 14 0
BBX 14 40 0 -10
BITMAP
0000
0000
0000
0000
0000
0000
0000
0000
FCFC
FCFC
3030
3030
1860
1860
1860
0CC0
0CC0
0CC0
0CC0
0780
0780
0780
0300
0300
0300
0300
0300
0300
3FF0
3FF0
0000
0000
0000
0000
0000
0000
0000
0000
0000
0000
ENDCHAR

STARTCHAR Z
ENCODING 90
SWIDTH 361 0
DWIDTH 14 0
BBX 14 40 0 -10
BITMAP
0000
0000
0000
0000
0000
0000
0000
0000
3FF0
3FF0
3030
3030
3060
3060
30C0
30C0
0180
0180
0300
0300
0600
0600
0C30
0C30
1830
1830
3030
3030
3FF0
3FF0
0000
0000
0000
0000
0000
0000
0000
0000
0000
0000
ENDCHAR

STARTCHAR bracketleft
ENCODING 91
SWIDTH 361 0
DWIDTH 14 0
BBX 14 40 0 -10
BITMAP
0000
0000
0FC0
0FC0
0C00
0C00
0C00
0C00
0C00
0C00
0C00
0C00
0C00
0C00
0C00
0C00
0C00
0C00
0C00
0C00
0C00
0C00
0C00
0C00
0C00
0C00
0C00
0C00
0C00
0C00
0C00
0C00
0FC0
0FC0
0000
0000
0000
0000
0000
0000
ENDCHAR

STARTCHAR backslash
ENCODING 92
SWIDTH 361 0
DWIDTH 14 0
BBX 14 40 0 -10
BITMAP
0000
0000
0000
0000
0000
0000
6000
6000
3000
3000
3000
3000
1800
1800
1800
0C00
0C00
0C00
0C00
0600
0600
0600
0300
0300
0300
0180
0180
0180
0180
00C0
00C0
0000
0000
0000
0000
0000
0000
0000
0000
0000
ENDCHAR

STARTCHAR bracketright
ENCODING 93
SWIDTH 361 0
DWIDTH 14 0
BBX 14 40 0 -10
BITMAP
0000
0000
0FC0
0FC0
00C0
00C0
00C0
00C0
00C0
00C0
00C0
00C0
00C0
00C0
00C0
00C0
00C0
00C0
00C0
00C0
00C0
00C0
00C0
00C0
00C0
00C0
00C0
00C0
00C0
00C0
00C0
00C0
0FC0
0FC0
0000
0000
0000
0000
0000
0000
ENDCHAR

STARTCHAR asciicircum
ENCODING 94
SWIDTH 361 0
DWIDTH 14 0
BBX 14 40 0 -10
BITMAP
0000
0000
0200
0700
0F80
1DC0
38E0
7070
0000
0000
0000
0000
0000
0000
0000
0000
0000
0000
0000
0000
0000
0000
0000
0000
0000
0000
0000
0000
0000
0000
0000
0000
0000
0000
0000
0000
0000
0000
0000
0000
ENDCHAR

STARTCHAR underscore
ENCODING 95
SWIDTH 361 0
DWIDTH 14 0
BBX 14 40 0 -10
BITMAP
0000
0000
0000
0000
0000
0000
0000
0000
0000
0000
0000
0000
0000
0000
0000
0000
0000
0000
0000
0000
0000
0000
0000
0000
0000
0000
0000
0000
FFFC
FFFC
0000
0000
0000
0000
0000
0000
0000
0000
0000
0000
ENDCHAR

STARTCHAR quoteleft
ENCODING 96
SWIDTH 361 0
DWIDTH 14 0
BBX 14 40 0 -10
BITMAP
0000
0000
0E00
0E00
0300
0300
0180
0180
00C0
00C0
0000
0000
0000
0000
0000
0000
0000
0000
0000
0000
0000
0000
0000
0000
0000
0000
0000
0000
0000
0000
0000
0000
0000
0000
0000
0000
0000
0000
0000
0000
ENDCHAR

STARTCHAR a
ENCODING 97
SWIDTH 361 0
DWIDTH 14 0
BBX 14 40 0 -10
BITMAP
0000
0000
0000
0000
0000
0000
0000
0000
0000
0000
0000
0000
0F80
3FC0
70E0
6060
0060
0060
0FE0
3FE0
3060
6060
6060
6060
6060
6060
60E0
71E0
3F78
1E78
0000
0000
0000
0000
0000
0000
0000
0000
0000
0000
ENDCHAR

STARTCHAR b
ENCODING 98
SWIDTH 361 0
DWIDTH 14 0
BBX 14 40 0 -10
BITMAP
0000
0000
0000
0000
0000
0000
7800
7800
1800
1800
1800
1800
19E0
1BF0
1E30
1C18
1818
1818
1818
1818
1818
1818
1818
1818
1818
1818
1C18
1E30
7BF0
79E0
0000
0000
0000
0000
0000
0000
0000
0000
0000
0000
ENDCHAR

STARTCHAR c
ENCODING 99
SWIDTH 361 0
DWIDTH 14 0
BBX 14 40 0 -10
BITMAP
0000
0000
0000
0000
0000
0000
0000
0000
0000
0000
0000
0000
07B0
1FF0
1870
3030
3030
3030
3000
3000
3000
3000
3000
3000
3000
3000
3030
1870
1FE0
0780
0000
0000
0000
0000
0000
0000
0000
0000
0000
0000
ENDCHAR

STARTCHAR d
ENCODING 100
SWIDTH 361 0
DWIDTH 14 0
BBX 14 40 0 -10
BITMAP
0000
0000
0000
0000
0000
0000
01E0
01E0
0060
0060
0060
0060
0F60
3FE0
30E0
6060
6060
6060
6060
6060
6060
6060
6060
6060
6060
6060
6060
30E0
3FF8
0F78
0000
0000
0000
0000
0000
0000
0000
0000
0000
0000
ENDCHAR

STARTCHAR e
ENCODING 101
SWIDTH 361 0
DWIDTH 14 0
BBX 14 40 0 -10
BITMAP
0000
0000
0000
0000
0000
0000
0000
0000
0000
0000
0000
0000
0780
1FE0
1860
3030
3030
3030
3030
3030
3FF0
3FF0
3000
3000
3000
3000
3030
1870
1FE0
0780
0000
0000
0000
0000
0000
0000
0000
0000
0000
0000
ENDCHAR

STARTCHAR f
ENCODING 102
SWIDTH 361 0
DWIDTH 14 0
BBX 14 40 0 -10
BITMAP
0000
0000
0000
0000
0000
0000
01F0
03F0
0700
0600
0600
0600
3FF0
3FF0
0600
0600
0600
0600
0600
0600
0600
0600
0600
0600
0600
0600
0600
0600
3FE0
3FE0
0000
0000
0000
0000
0000
0000
0000
0000
0000
0000
ENDCHAR

STARTCHAR g
ENCODING 103
SWIDTH 361 0
DWIDTH 14 0
BBX 14 40 0 -10
BITMAP
0000
0000
0000
0000
0000
0000
0000
0000
0000
0000
0000
0000
0F78
3FF8
30E0
6060
6060
6060
6060
6060
6060
6060
6060
6060
6060
6060
6060
30E0
3FE0
0F60
0060
0060
0060
0060
00E0
01C0
7FC0
7F00
0000
0000
ENDCHAR

STARTCHAR h
ENCODING 104
SWIDTH 361 0
DWIDTH 14 0
BBX 14 40 0 -10
BITMAP
0000
0000
0000
0000
0000
0000
F000
F000
3000
3000
3000
3000
33C0
37E0
3C70
3830
3030
3030
3030
3030
3030
3030
3030
3030
3030
3030
3030
3030
FCFC
FCFC
0000
0000
0000
0000
0000
0000
0000
0000
0000
0000
ENDCHAR

STARTCHAR i
ENCODING 105
SWIDTH 362 0
DWIDTH 14 0
BBX 14 40 0 -10
BITMAP
0000
0000
0000
0000
0300
0300
0300
0300
0000
0000
0000
0000
3F00
3F00
0300
0300
0300
0300
0300
0300
0300
0300
0300
0300
0300
0300
0300
0300
3FF0
3FF0
0000
0000
0000
0000
0000
0000
0000
0000
0000
0000
ENDCHAR

STARTCHAR j
ENCODING 106
SWIDTH 361 0
DWIDTH 14 0
BBX 14 40 0 -10
BITMAP
0000
0000
0000
0000
0060
0060
0060
0060
0000
0000
0000
0000
1FE0
1FE0
0060
0060
0060
0060
0060
0060
0060
0060
0060
0060
0060
0060
0060
0060
0060
0060
0060
0060
0060
0060
0060
00E0
1FC0
1F80
0000
0000
ENDCHAR

STARTCHAR k
ENCODING 107
SWIDTH 361 0
DWIDTH 14 0
BBX 14 40 0 -10
BITMAP
0000
0000
0000
0000
0000
0000
7800
7800
1800
1800
1800
1800
1878
1878
18C0
18C0
1980
1980
1B00
1B00
1F00
1D80
1980
1980
18C0
18C0
1860
1860
7878
7878
0000
0000
0000
0000
0000
0000
0000
0000
0000
0000
ENDCHAR

STARTCHAR l
ENCODING 108
SWIDTH 361 0
DWIDTH 14 0
BBX 14 40 0 -10
BITMAP
0000
0000
0000
0000
0000
0000
3F00
3F00
0300
0300
0300
0300
0300
0300
0300
0300
0300
0300
0300
0300
0300
0300
0300
0300
0300
0300
0300
0300
3FF0
3FF0
0000
0000
0000
0000
0000
0000
0000
0000
0000
0000
ENDCHAR

STARTCHAR m
ENCODING 109
SWIDTH 361 0
DWIDTH 14 0
BBX 14 40 0 -10
BITMAP
0000
0000
0000
0000
0000
0000
0000
0000
0000
0000
0000
0000
EC70
FEF8
7398
6318
6318
6318
6318
6318
6318
6318
6318
6318
6318
6318
6318
6318
E39C
E39C
0000
0000
0000
0000
0000
0000
0000
0000
0000
0000
ENDCHAR

STARTCHAR n
ENCODING 110
SWIDTH 361 0
DWIDTH 14 0
BBX 14 40 0 -10
BITMAP
0000
0000
0000
0000
0000
0000
0000
0000
0000
0000
0000
0000
F3C0
F7E0
3C70
3830
3030
3030
3030
3030
3030
3030
3030
3030
3030
3030
3030
3030
FCFC
FCFC
0000
0000
0000
0000
0000
0000
0000
0000
0000
0000
ENDCHAR

STARTCHAR o
ENCODING 111
SWIDTH 361 0
DWIDTH 14 0
BBX 14 40 0 -10
BITMAP
0000
0000
0000
0000
0000
0000
0000
0000
0000
0000
0000
0000
0780
1FE0
1860
3030
3030
3030
3030
3030
3030
3030
3030
3030
3030
3030
3030
1860
1FE0
0780
0000
0000
0000
0000
0000
0000
0000
0000
0000
0000
ENDCHAR

STARTCHAR p
ENCODING 112
SWIDTH 361 0
DWIDTH 14 0
BBX 14 40 0 -10
BITMAP
0000
0000
0000
0000
0000
0000
0000
0000
0000
0000
0000
0000
79E0
7BF0
1E30
1C18
1818
1818
1818
1818
1818
1818
1818
1818
1818
1818
1C18
1E30
1BF0
19E0
1800
1800
1800
1800
1800
1800
7F80
7F80
0000
0000
ENDCHAR

STARTCHAR q
ENCODING 113
SWIDTH 361 0
DWIDTH 14 0
BBX 14 40 0 -10
BITMAP
0000
0000
0000
0000
0000
0000
0000
0000
0000
0000
0000
0000
0F78
3FF8
30E0
6060
6060
6060
6060
6060
6060
6060
6060
6060
6060
6060
6060
30E0
3FE0
0F60
0060
0060
0060
0060
0060
0060
07F8
07F8
0000
0000
ENDCHAR

STARTCHAR r
ENCODING 114
SWIDTH 361 0
DWIDTH 14 0
BBX 14 40 0 -10
BITMAP
0000
0000
0000
0000
0000
0000
0000
0000
0000
0000
0000
0000
79F0
7BF8
1E38
1C18
1800
1800
1800
1800
1800
1800
1800
1800
1800
1800
1800
1800
7FC0
7FC0
0000
0000
0000
0000
0000
0000
0000
0000
0000
0000
ENDCHAR

STARTCHAR s
ENCODING 115
SWIDTH 361 0
DWIDTH 14 0
BBX 14 40 0 -10
BITMAP
0000
0000
0000
0000
0000
0000
0000
0000
0000
0000
0000
0000
0FB0
1FF0
3870
3030
3030
3030
3000
3800
1F80
0FE0
00F0
0030
3030
3030
3030
3870
3FE0
37C0
0000
0000
0000
0000
0000
0000
0000
0000
0000
0000
ENDCHAR

STARTCHAR t
ENCODING 116
SWIDTH 361 0
DWIDTH 14 0
BBX 14 40 0 -10
BITMAP
0000
0000
0000
0000
0000
0000
0000
0000
1800
1800
1800
1800
7FE0
7FE0
1800
1800
1800
1800
1800
1800
1800
1800
1800
1800
1800
1800
1818
1C78
0FF0
07C0
0000
0000
0000
0000
0000
0000
0000
0000
0000
0000
ENDCHAR

STARTCHAR u
ENCODING 117
SWIDTH 361 0
DWIDTH 14 0
BBX 14 40 0 -10
BITMAP
0000
0000
0000
0000
0000
0000
0000
0000
0000
0000
0000
0000
F0F0
F0F0
3030
3030
3030
3030
3030
3030
3030
3030
3030
3030
3030
3030
3070
38F0
1FBC
0F3C
0000
0000
0000
0000
0000
0000
0000
0000
0000
0000
ENDCHAR

STARTCHAR v
ENCODING 118
SWIDTH 361 0
DWIDTH 14 0
BBX 14 40 0 -10
BITMAP
0000
0000
0000
0000
0000
0000
0000
0000
0000
0000
0000
0000
FCFC
FCFC
3030
3030
3030
3030
1860
1860
1860
1860
0CC0
0CC0
0CC0
0CC0
0780
0780
0300
0300
0000
0000
0000
0000
0000
0000
0000
0000
0000
0000
ENDCHAR

STARTCHAR w
ENCODING 119
SWIDTH 361 0
DWIDTH 14 0
BBX 14 40 0 -10
BITMAP
0000
0000
0000
0000
0000
0000
0000
0000
0000
0000
0000
0000
F03C
F03C
C00C
C00C
C00C
C00C
C30C
4308
6318
6798
6798
6CD8
6CD8
6858
3870
3870
3030
3030
0000
0000
0000
0000
0000
0000
0000
0000
0000
0000
ENDCHAR

STARTCHAR x
ENCODING 120
SWIDTH 361 0
DWIDTH 14 0
BBX 14 40 0 -10
BITMAP
0000
0000
0000
0000
0000
0000
0000
0000
0000
0000
0000
0000
7878
7878
1860
1860
0CC0
0CC0
0780
0780
0300
0300
0780
0780
0CC0
0CC0
1860
1860
7878
7878
0000
0000
0000
0000
0000
0000
0000
0000
0000
0000
ENDCHAR

STARTCHAR y
ENCODING 121
SWIDTH 361 0
DWIDTH 14 0
BBX 14 40 0 -10
BITMAP
0000
0000
0000
0000
0000
0000
0000
0000
0000
0000
0000
0000
FCFC
FCFC
3030
3030
3030
3030
1860
1860
1860
1860
0CC0
0CC0
0CC0
0CC0
0780
0780
0300
0300
0300
0300
0600
0600
0600
0600
7F80
7F80
0000
0000
ENDCHAR

STARTCHAR z
ENCODING 122
SWIDTH 361 0
DWIDTH 14 0
BBX 14 40 0 -10
BITMAP
0000
0000
0000
0000
0000
0000
0000
0000
0000
0000
0000
0000
3FF0
3FF0
3060
3060
30C0
30C0
0180
0180
0300
0300
0600
0600
0C30
0C30
1830
1830
3FF0
3FF0
0000
0000
0000
0000
0000
0000
0000
0000
0000
0000
ENDCHAR

STARTCHAR braceleft
ENCODING 123
SWIDTH 361 0
DWIDTH 14 0
BBX 14 40 0 -10
BITMAP
0000
0000
00E0
01E0
0300
0300
0300
0300
0300
0300
0300
0300
0300
0300
0300
0300
0300
3E00
3E00
0300
0300
0300
0300
0300
0300
0300
0300
0300
0300
0300
0300
0300
01E0
00E0
0000
0000
0000
0000
0000
0000
ENDCHAR

STARTCHAR bar
ENCODING 124
SWIDTH 361 0
DWIDTH 14 0
BBX 14 40 0 -10
BITMAP
0000
0000
0000
0000
0300
0300
0300
0300
0300
0300
0300
0300
0300
0300
0300
0300
0300
0300
0300
0300
0300
0300
0300
0300
0300
0300
0300
0300
0300
0300
0300
0300
0300
0300
0000
0000
0000
0000
0000
0000
ENDCHAR

STARTCHAR braceright
ENCODING 125
SWIDTH 361 0
DWIDTH 14 0
BBX 14 40 0 -10
BITMAP
0000
0000
3800
3C00
0600
0600
0600
0600
0600
0600
0600
0600
0600
0600
0600
0600
0600
03E0
03E0
0600
0600
0600
0600
0600
0600
0600
0600
0600
0600
0600
0600
0600
3C00
3800
0000
0000
0000
0000
0000
0000
ENDCHAR

STARTCHAR asciitilde
ENCODING 126
SWIDTH 361 0
DWIDTH 14 0
BBX 14 40 0 -10
BITMAP
0000
0000
1C30
3E30
3330
3330
31F0
30E0
0000
0000
0000
0000
0000
0000
0000
0000
0000
0000
0000
0000
0000
0000
0000
0000
0000
0000
0000
0000
0000
0000
0000
0000
0000
0000
0000
0000
0000
0000
0000
0000
ENDCHAR

STARTCHAR space
ENCODING 160
SWIDTH 361 0
DWIDTH 14 0
BBX 14 40 0 -10
BITMAP
0000
0000
0000
0000
0000
0000
0000
0000
0000
0000
0000
0000
0000
0000
0000
0000
0000
0000
0000
0000
0000
0000
0000
0000
0000
0000
0000
0000
0000
0000
0000
0000
0000
0000
0000
0000
0000
0000
0000
0000
ENDCHAR

STARTCHAR Aogonek
ENCODING 161
SWIDTH 361 0
DWIDTH 14 0
BBX 14 40 0 -10
BITMAP
0000
0000
0000
0000
0000
0000
0000
0000
0780
0780
0780
0480
0CC0
0CC0
0CC0
0CC0
0CC0
0CC0
1860
1860
1860
1860
1FE0
1FE0
3030
3030
3030
3030
FCFC
FCFC
0060
00C0
00CC
00FC
0078
0000
0000
0000
0000
0000
ENDCHAR

STARTCHAR breve
ENCODING 162
SWIDTH 361 0
DWIDTH 14 0
BBX 14 40 0 -10
BITMAP
0000
0000
0000
0000
1860
1860
1CE0
0FC0
0780
0000
0000
0000
0000
0000
0000
0000
0000
0000
0000
0000
0000
0000
0000
0000
0000
0000
0000
0000
0000
0000
0000
0000
0000
0000
0000
0000
0000
0000
0000
0000
ENDCHAR

STARTCHAR Lslash
ENCODING 163
SWIDTH 361 0
DWIDTH 14 0
BBX 14 40 0 -10
BITMAP
0000
0000
0000
0000
0000
0000
0000
0000
7E00
7E00
1800
1800
1800
1800
1800
1900
1B00
1E00
1C00
3800
7800
D800
9800
1800
1818
1818
1818
1818
7FF8
7FF8
0000
0000
0000
0000
0000
0000
0000
0000
0000
0000
ENDCHAR

STARTCHAR currency
ENCODING 164
SWIDTH 361 0
DWIDTH 14 0
BBX 14 40 0 -10
BITMAP
0000
0000
0000
0000
0000
0000
0000
0000
0000
0000
0000
0000
6030
7070
3FE0
1FC0
18C0
3060
3060
3060
3060
18C0
1FC0
3FE0
7070
6030
0000
0000
0000
0000
0000
0000
0000
0000
0000
0000
0000
0000
0000
0000
ENDCHAR

STARTCHAR Lcaron
ENCODING 165
SWIDTH 361 0
DWIDTH 14 0
BBX 14 40 0 -10
BITMAP
0000
0000
0000
0000
0000
0000
0000
0000
7E10
7E38
1838
1818
1810
1830
1800
1800
1800
1800
1800
1800
1800
1800
1800
1800
1818
1818
1818
1818
7FF8
7FF8
0000
0000
0000
0000
0000
0000
0000
0000
0000
0000
ENDCHAR

STARTCHAR Sacute
ENCODING 166
SWIDTH 361 0
DWIDTH 14 0
BBX 14 40 0 -10
BITMAP
0060
00F0
01E0
0380
0700
0C00
0000
0000
07B0
1FF0
1870
3030
3030
3030
3000
3000
3800
1E00
0FC0
03E0
0070
0030
0030
0030
3030
3030
3030
3870
3FE0
37C0
0000
0000
0000
0000
0000
0000
0000
0000
0000
0000
ENDCHAR

STARTCHAR section
ENCODING 167
SWIDTH 361 0
DWIDTH 14 0
BBX 14 40 0 -10
BITMAP
0000
0000
0000
0000
0000
0000
0000
0000
03F0
07F0
0C30
0C30
0C00
0C00
0C00
1E00
3700
3380
31C0
30E0
3860
1870
1C30
0E30
0730
03B0
01E0
00C0
00C0
00C0
30C0
30C0
3F80
3F00
0000
0000
0000
0000
0000
0000
ENDCHAR

STARTCHAR dieresis
ENCODING 168
SWIDTH 361 0
DWIDTH 14 0
BBX 14 40 0 -10
BITMAP
0000
0000
0000
0000
0000
3030
3030
3030
3030
0000
0000
0000
0000
0000
0000
0000
0000
0000
0000
0000
0000
0000
0000
0000
0000
0000
0000
0000
0000
0000
0000
0000
0000
0000
0000
0000
0000
0000
0000
0000
ENDCHAR

STARTCHAR Scaron
ENCODING 169
SWIDTH 361 0
DWIDTH 14 0
BBX 14 40 0 -10
BITMAP
0000
3030
1CE0
0FC0
0780
0300
0000
0000
07B0
1FF0
1870
3030
3030
3030
3000
3000
3800
1E00
0FC0
03E0
0070
0030
0030
0030
3030
3030
3030
3870
3FE0
37C0
0000
0000
0000
0000
0000
0000
0000
0000
0000
0000
ENDCHAR

STARTCHAR Scommaaccent
ENCODING 170
SWIDTH 361 0
DWIDTH 14 0
BBX 14 40 0 -10
BITMAP
0000
0000
0000
0000
0000
0000
0000
0000
07B0
1FF0
1870
3030
3030
3030
3000
3000
3800
1E00
0FC0
03E0
0070
0030
0030
0030
3030
3030
3030
3870
3FE0
37C0
0000
0100
0380
0380
0180
0100
0300
0000
0000
0000
ENDCHAR

STARTCHAR Tcaron
ENCODING 171
SWIDTH 361 0
DWIDTH 14 0
BBX 14 40 0 -10
BITMAP
0000
3030
1CE0
0FC0
0780
0300
0000
0000
7FF8
7FF8
6318
6318
6318
6318
6318
6318
0300
0300
0300
0300
0300
0300
0300
0300
0300
0300
0300
0300
1FE0
1FE0
0000
0000
0000
0000
0000
0000
0000
0000
0000
0000
ENDCHAR

STARTCHAR Zacute
ENCODING 172
SWIDTH 361 0
DWIDTH 14 0
BBX 14 40 0 -10
BITMAP
00C0
01E0
03C0
0700
0E00
1800
0000
0000
3FF0
3FF0
3030
3030
3060
3060
30C0
30C0
0180
0180
0300
0300
0600
0600
0C30
0C30
1830
1830
3030
3030
3FF0
3FF0
0000
0000
0000
0000
0000
0000
0000
0000
0000
0000
ENDCHAR

STARTCHAR hyphen
ENCODING 173
SWIDTH 361 0
DWIDTH 14 0
BBX 14 40 0 -10
BITMAP
0000
0000
0000
0000
0000
0000
0000
0000
0000
0000
0000
0000
0000
0000
0000
0000
0000
0000
0000
0000
3FF0
3FF0
0000
0000
0000
0000
0000
0000
0000
0000
0000
0000
0000
0000
0000
0000
0000
0000
0000
0000
ENDCHAR

STARTCHAR Zcaron
ENCODING 174
SWIDTH 361 0
DWIDTH 14 0
BBX 14 40 0 -10
BITMAP
0000
3030
1CE0
0FC0
0780
0300
0000
0000
3FF0
3FF0
3030
3030
3060
3060
30C0
30C0
0180
0180
0300
0300
0600
0600
0C30
0C30
1830
1830
3030
3030
3FF0
3FF0
0000
0000
0000
0000
0000
0000
0000
0000
0000
0000
ENDCHAR

STARTCHAR Zdotaccent
ENCODING 175
SWIDTH 361 0
DWIDTH 14 0
BBX 14 40 0 -10
BITMAP
0000
0300
0300
0300
0300
0000
0000
0000
3FF0
3FF0
3030
3030
3060
3060
30C0
30C0
0180
0180
0300
0300
0600
0600
0C30
0C30
1830
1830
3030
3030
3FF0
3FF0
0000
0000
0000
0000
0000
0000
0000
0000
0000
0000
ENDCHAR

STARTCHAR degree
ENCODING 176
SWIDTH 361 0
DWIDTH 14 0
BBX 14 40 0 -10
BITMAP
0000
0000
0000
0000
0000
0000
0000
0000
0780
1FE0
1860
3030
3030
3030
3030
1860
1FE0
0780
0000
0000
0000
0000
0000
0000
0000
0000
0000
0000
0000
0000
0000
0000
0000
0000
0000
0000
0000
0000
0000
0000
ENDCHAR

STARTCHAR aogonek
ENCODING 177
SWIDTH 361 0
DWIDTH 14 0
BBX 14 40 0 -10
BITMAP
0000
0000
0000
0000
0000
0000
0000
0000
0000
0000
0000
0000
0F80
3FC0
70E0
6060
0060
0060
0FE0
3FE0
3060
6060
6060
6060
6060
6060
60E0
71E0
3F78
1E78
0060
00C0
00CC
00FC
0078
0000
0000
0000
0000
0000
ENDCHAR

STARTCHAR ogonek
ENCODING 178
SWIDTH 361 0
DWIDTH 14 0
BBX 14 40 0 -10
BITMAP
0000
0000
0000
0000
0000
0000
0000
0000
0000
0000
0000
0000
0000
0000
0000
0000
0000
0000
0000
0000
0000
0000
0000
0000
0000
0000
0000
0000
0000
0180
0180
0300
0330
03F0
01E0
0000
0000
0000
0000
0000
ENDCHAR

STARTCHAR lslash
ENCODING 179
SWIDTH 361 0
DWIDTH 14 0
BBX 14 40 0 -10
BITMAP
0000
0000
0000
0000
0000
0000
3F00
3F00
0300
0300
0300
0300
0300
0300
0320
0360
03C0
0380
0700
0F00
1B00
1300
0300
0300
0300
0300
0300
0300
3FF0
3FF0
0000
0000
0000
0000
0000
0000
0000
0000
0000
0000
ENDCHAR

STARTCHAR acute
ENCODING 180
SWIDTH 361 0
DWIDTH 14 0
BBX 14 40 0 -10
BITMAP
0000
0000
0000
0000
00C0
01E0
03C0
0700
0E00
1800
0000
0000
0000
0000
0000
0000
0000
0000
0000
0000
0000
0000
0000
0000
0000
0000
0000
0000
0000
0000
0000
0000
0000
0000
0000
0000
0000
0000
0000
0000
ENDCHAR

STARTCHAR lcaron
ENCODING 181
SWIDTH 361 0
DWIDTH 14 0
BBX 14 40 0 -10
BITMAP
0000
0000
0000
0000
0000
0000
3F10
3F38
0338
0318
0310
0330
0300
0300
0300
0300
0300
0300
0300
0300
0300
0300
0300
0300
0300
0300
0300
0300
3FF0
3FF0
0000
0000
0000
0000
0000
0000
0000
0000
0000
0000
ENDCHAR

STARTCHAR sacute
ENCODING 182
SWIDTH 361 0
DWIDTH 14 0
BBX 14 40 0 -10
BITMAP
0000
0000
0000
0000
0060
00F0
01E0
0380
0700
0C00
0000
0000
0FB0
1FF0
3870
3030
3030
3030
3000
3800
1F80
0FE0
00F0
0030
3030
3030
3030
3870
3FE0
3780
0000
0000
0000
0000
0000
0000
0000
0000
0000
0000
ENDCHAR

STARTCHAR caron
ENCODING 183
SWIDTH 361 0
DWIDTH 14 0
BBX 14 40 0 -10
BITMAP
0000
0000
0000
0000
0000
3030
1CE0
0FC0
0780
0300
0000
0000
0000
0000
0000
0000
0000
0000
0000
0000
0000
0000
0000
0000
0000
0000
0000
0000
0000
0000
0000
0000
0000
0000
0000
0000
0000
0000
0000
0000
ENDCHAR

STARTCHAR commaaccent
ENCODING 184
SWIDTH 361 0
DWIDTH 14 0
BBX 14 40 0 -10
BITMAP
0000
0000
0000
0000
0000
0000
0000
0000
0000
0000
0000
0000
0000
0000
0000
0000
0000
0000
0000
0000
0000
0000
0000
0000
0000
0000
0000
0000
0000
0000
0000
0100
0380
0380
0180
0100
0300
0000
0000
0000
ENDCHAR

STARTCHAR scaron
ENCODING 185
SWIDTH 361 0
DWIDTH 14 0
BBX 14 40 0 -10
BITMAP
0000
0000
0000
0000
0000
3030
1CE0
0FC0
0780
0300
0000
0000
0FB0
1FF0
3870
3030
3030
3030
3000
3800
1F80
0FE0
00F0
0030
3030
3030
3030
3870
3FE0
37C0
0000
0000
0000
0000
0000
0000
0000
0000
0000
0000
ENDCHAR

STARTCHAR scommaaccent
ENCODING 186
SWIDTH 361 0
DWIDTH 14 0
BBX 14 40 0 -10
BITMAP
0000
0000
0000
0000
0000
0000
0000
0000
0000
0000
0000
0000
0FB0
1FF0
3870
3030
3030
3030
3000
3800
1F80
0FE0
00F0
0030
3030
3030
3030
3870
3FE0
37C0
0000
0100
0380
0380
0180
0100
0300
0000
0000
0000
ENDCHAR

STARTCHAR tcaron
ENCODING 187
SWIDTH 361 0
DWIDTH 14 0
BBX 14 40 0 -10
BITMAP
0000
0000
0000
0000
0000
0000
0000
0000
1810
1838
1838
1818
7FF0
7FF0
1800
1800
1800
1800
1800
1800
1800
1800
1800
1800
1800
1800
1818
1C78
0FF0
07C0
0000
0000
0000
0000
0000
0000
0000
0000
0000
0000
ENDCHAR

STARTCHAR zacute
ENCODING 188
SWIDTH 361 0
DWIDTH 14 0
BBX 14 40 0 -10
BITMAP
0000
0000
0000
0000
0060
00F0
01E0
0380
0700
0C00
0000
0000
3FF0
3FF0
3060
3060
30C0
30C0
0180
0180
0300
0300
0600
0600
0C30
0C30
1830
1830
3FF0
3FF0
0000
0000
0000
0000
0000
0000
0000
0000
0000
0000
ENDCHAR

STARTCHAR hungarumlaut
ENCODING 189
SWIDTH 361 0
DWIDTH 14 0
BBX 14 40 0 -10
BITMAP
0000
0000
0000
0000
0318
07BC
0F78
1CE0
39C0
6300
0000
0000
0000
0000
0000
0000
0000
0000
0000
0000
0000
0000
0000
0000
0000
0000
0000
0000
0000
0000
0000
0000
0000
0000
0000
0000
0000
0000
0000
0000
ENDCHAR

STARTCHAR zcaron
ENCODING 190
SWIDTH 361 0
DWIDTH 14 0
BBX 14 40 0 -10
BITMAP
0000
0000
0000
0000
0000
3030
1CE0
0FC0
0780
0300
0000
0000
3FF0
3FF0
3060
3060
30C0
30C0
0180
0180
0300
0300
0600
0600
0C30
0C30
1830
1830
3FF0
3FF0
0000
0000
0000
0000
0000
0000
0000
0000
0000
0000
ENDCHAR

STARTCHAR zdotaccent
ENCODING 191
SWIDTH 361 0
DWIDTH 14 0
BBX 14 40 0 -10
BITMAP
0000
0000
0000
0000
0000
0300
0300
0300
0300
0000
0000
0000
3FF0
3FF0
3060
3060
30C0
30C0
0180
0180
0300
0300
0600
0600
0C30
0C30
1830
1830
3FF0
3FF0
0000
0000
0000
0000
0000
0000
0000
0000
0000
0000
ENDCHAR

STARTCHAR Racute
ENCODING 192
SWIDTH 361 0
DWIDTH 14 0
BBX 14 40 0 -10
BITMAP
0180
03C0
0780
0E00
1C00
3000
0000
0000
FFC0
FFE0
3060
3030
3030
3030
3030
3030
3030
3060
3FE0
3FC0
30C0
30C0
3060
3060
3060
3030
3030
3030
FC1C
FC1C
0000
0000
0000
0000
0000
0000
0000
0000
0000
0000
ENDCHAR

STARTCHAR Aacute
ENCODING 193
SWIDTH 361 0
DWIDTH 14 0
BBX 14 40 0 -10
BITMAP
00C0
01E0
03C0
0700
0E00
1800
0000
0000
0780
0780
0780
0480
0CC0
0CC0
0CC0
0CC0
0CC0
0CC0
1860
1860
1860
1860
1FE0
1FE0
3030
3030
3030
3030
FCFC
FCFC
0000
0000
0000
0000
0000
0000
0000
0000
0000
0000
ENDCHAR

STARTCHAR Acircumflex
ENCODING 194
SWIDTH 361 0
DWIDTH 14 0
BBX 14 40 0 -10
BITMAP
0000
0300
0780
0FC0
1CE0
3030
0000
0000
0780
0780
0780
0480
0CC0
0CC0
0CC0
0CC0
0CC0
0CC0
1860
1860
1860
1860
1FE0
1FE0
3030
3030
3030
3030
FCFC
FCFC
0000
0000
0000
0000
0000
0000
0000
0000
0000
0000
ENDCHAR

STARTCHAR Abreve
ENCODING 195
SWIDTH 361 0
DWIDTH 14 0
BBX 14 40 0 -10
BITMAP
0000
1860
1860
1CE0
0FC0
0780
0000
0000
0780
0780
0780
0480
0CC0
0CC0
0CC0
0CC0
0CC0
0CC0
1860
1860
1860
1860
1FE0
1FE0
3030
3030
3030
3030
FCFC
FCFC
0000
0000
0000
0000
0000
0000
0000
0000
0000
0000
ENDCHAR

STARTCHAR Adieresis
ENCODING 196
SWIDTH 361 0
DWIDTH 14 0
BBX 14 40 0 -10
BITMAP
0000
3030
3030
3030
3030
0000
0000
0000
0780
0780
0780
0480
0CC0
0CC0
0CC0
0CC0
0CC0
0CC0
1860
1860
1860
1860
1FE0
1FE0
3030
3030
3030
3030
FCFC
FCFC
0000
0000
0000
0000
0000
0000
0000
0000
0000
0000
ENDCHAR

STARTCHAR Lacute
ENCODING 197
SWIDTH 361 0
DWIDTH 14 0
BBX 14 40 0 -10
BITMAP
0180
03C0
0780
0E00
1C00
3000
0000
0000
7E00
7E00
1800
1800
1800
1800
1800
1800
1800
1800
1800
1800
1800
1800
1800
1800
1818
1818
1818
1818
7FF8
7FF8
0000
0000
0000
0000
0000
0000
0000
0000
0000
0000
ENDCHAR

STARTCHAR Cacute
ENCODING 198
SWIDTH 361 0
DWIDTH 14 0
BBX 14 40 0 -10
BITMAP
00C0
01E0
03C0
0700
0E00
1800
0000
0000
0730
1FB0
18F0
3070
3030
3030
3000
3000
3000
3000
3000
3000
3000
3000
3000
3000
3000
3000
3030
1860
1FE0
0780
0000
0000
0000
0000
0000
0000
0000
0000
0000
0000
ENDCHAR

STARTCHAR Ccedilla
ENCODING 199
SWIDTH 361 0
DWIDTH 14 0
BBX 14 40 0 -10
BITMAP
0000
0000
0000
0000
0000
0000
0000
0000
0730
1FB0
18F0
3070
3030
3030
3000
3000
3000
3000
3000
3000
3000
3000
3000
3000
3000
3000
3030
1860
1FE0
0780
0300
0300
03E0
03F0
0030
0030
07F0
07E0
0000
0000
ENDCHAR

STARTCHAR Ccaron
ENCODING 200
SWIDTH 361 0
DWIDTH 14 0
BBX 14 40 0 -10
BITMAP
0000
3030
1CE0
0FC0
0780
0300
0000
0000
0730
1FB0
18F0
3070
3030
3030
3000
3000
3000
3000
3000
3000
3000
3000
3000
3000
3000
3000
3030
1860
1FE0
0780
0000
0000
0000
0000
0000
0000
0000
0000
0000
0000
ENDCHAR

STARTCHAR Eacute
ENCODING 201
SWIDTH 361 0
DWIDTH 14 0
BBX 14 40 0 -10
BITMAP
00C0
01E0
03C0
0700
0E00
1800
0000
0000
7FF8
7FF8
1818
1818
1818
1818
1800
1800
1860
1860
1FE0
1FE0
1860
1860
1800
1800
1818
1818
1818
1818
7FF8
7FF8
0000
0000
0000
0000
0000
0000
0000
0000
0000
0000
ENDCHAR

STARTCHAR Eogonek
ENCODING 202
SWIDTH 361 0
DWIDTH 14 0
BBX 14 40 0 -10
BITMAP
0000
0000
0000
0000
0000
0000
0000
0000
7FF8
7FF8
1818
1818
1818
1818
1800
1800
1860
1860
1FE0
1FE0
1860
1860
1800
1800
1818
1818
1818
1818
7FF8
7FF8
0060
00C0
00CC
00FC
0078
0000
0000
0000
0000
0000
ENDCHAR

STARTCHAR Edieresis
ENCODING 203
SWIDTH 361 0
DWIDTH 14 0
BBX 14 40 0 -10
BITMAP
0000
1818
1818
1818
1818
0000
0000
0000
7FF8
7FF8
1818
1818
1818
1818
1800
1800
1860
1860
1FE0
1FE0
1860
1860
1800
1800
1818
1818
1818
1818
7FF8
7FF8
0000
0000
0000
0000
0000
0000
0000
0000
0000
0000
ENDCHAR

STARTCHAR Ecaron
ENCODING 204
SWIDTH 361 0
DWIDTH 14 0
BBX 14 40 0 -10
BITMAP
0000
3030
1CE0
0FC0
0780
0300
0000
0000
7FF8
7FF8
1818
1818
1818
1818
1800
1800
1860
1860
1FE0
1FE0
1860
1860
1800
1800
1818
1818
1818
1818
7FF8
7FF8
0000
0000
0000
0000
0000
0000
0000
0000
0000
0000
ENDCHAR

STARTCHAR Iacute
ENCODING 205
SWIDTH 361 0
DWIDTH 14 0
BBX 14 40 0 -10
BITMAP
00C0
01E0
03C0
0700
0E00
1800
0000
0000
3FF0
3FF0
0300
0300
0300
0300
0300
0300
0300
0300
0300
0300
0300
0300
0300
0300
0300
0300
0300
0300
3FF0
3FF0
0000
0000
0000
0000
0000
0000
0000
0000
0000
0000
ENDCHAR

STARTCHAR Icircumflex
ENCODING 206
SWIDTH 361 0
DWIDTH 14 0
BBX 14 40 0 -10
BITMAP
0000
0300
0780
0FC0
1CE0
3030
0000
0000
3FF0
3FF0
0300
0300
0300
0300
0300
0300
0300
0300
0300
0300
0300
0300
0300
0300
0300
0300
0300
0300
3FF0
3FF0
0000
0000
0000
0000
0000
0000
0000
0000
0000
0000
ENDCHAR

STARTCHAR Dcaron
ENCODING 207
SWIDTH 361 0
DWIDTH 14 0
BBX 14 40 0 -10
BITMAP
0000
3030
1CE0
0FC0
0780
0300
0000
0000
7FC0
7FF0
1830
1818
1818
1818
1818
1818
1818
1818
1818
1818
1818
1818
1818
1818
1818
1818
1818
1830
7FF0
7FC0
0000
0000
0000
0000
0000
0000
0000
0000
0000
0000
ENDCHAR

STARTCHAR Dcroat
ENCODING 208
SWIDTH 361 0
DWIDTH 14 0
BBX 14 40 0 -10
BITMAP
0000
0000
0000
0000
0000
0000
0000
0000
7FC0
7FF0
1830
1818
1818
1818
1818
1818
1818
1818
7F98
7F98
1818
1818
1818
1818
1818
1818
1818
1830
7FF0
7FC0
0000
0000
0000
0000
0000
0000
0000
0000
0000
0000
ENDCHAR

STARTCHAR Nacute
ENCODING 209
SWIDTH 361 0
DWIDTH 14 0
BBX 14 40 0 -10
BITMAP
00C0
01E0
03C0
0700
0E00
1800
0000
0000
F8FC
F8FC
3830
3C30
3C30
3430
3630
3630
3230
3330
3330
3130
31B0
31B0
30B0
30F0
30F0
3070
3070
3070
FC30
FC30
0000
0000
0000
0000
0000
0000
0000
0000
0000
0000
ENDCHAR

STARTCHAR Ncaron
ENCODING 210
SWIDTH 361 0
DWIDTH 14 0
BBX 14 40 0 -10
BITMAP
0000
3030
1CE0
0FC0
0780
0300
0000
0000
F8FC
F8FC
3830
3C30
3C30
3430
3630
3630
3230
3330
3330
3130
31B0
31B0
30B0
30F0
30F0
3070
3070
3070
FC30
FC30
0000
0000
0000
0000
0000
0000
0000
0000
0000
0000
ENDCHAR

STARTCHAR Oacute
ENCODING 211
SWIDTH 361 0
DWIDTH 14 0
BBX 14 40 0 -10
BITMAP
00C0
01E0
03C0
0700
0E00
1800
0000
0000
0780
1FE0
1860
3030
3030
3030
3030
3030
3030
3030
3030
3030
3030
3030
3030
3030
3030
3030
3030
1860
1FE0
0780
0000
0000
0000
0000
0000
0000
0000
0000
0000
0000
ENDCHAR

STARTCHAR Ocircumflex
ENCODING 212
SWIDTH 361 0
DWIDTH 14 0
BBX 14 40 0 -10
BITMAP
0000
0300
0780
0FC0
1CE0
3030
0000
0000
0780
1FE0
1860
3030
3030
3030
3030
3030
3030
3030
3030
3030
3030
3030
3030
3030
3030
3030
3030
1860
1FE0
0780
0000
0000
0000
0000
0000
0000
0000
0000
0000
0000
ENDCHAR

STARTCHAR Ohungarumlaut
ENCODING 213
SWIDTH 361 0
DWIDTH 14 0
BBX 14 40 0 -10
BITMAP
0618
0F3C
1E78
38E0
71C0
C300
0000
0000
0780
1FE0
1860
3030
3030
3030
3030
3030
3030
3030
3030
3030
3030
3030
3030
3030
3030
3030
3030
1860
1FE0
0780
0000
0000
0000
0000
0000
0000
0000
0000
0000
0000
ENDCHAR

STARTCHAR Odieresis
ENCODING 214
SWIDTH 361 0
DWIDTH 14 0
BBX 14 40 0 -10
BITMAP
0000
3030
3030
3030
3030
0000
0000
0000
0780
1FE0
1860
3030
3030
3030
3030
3030
3030
3030
3030
3030
3030
3030
3030
3030
3030
3030
3030
1860
1FE0
0780
0000
0000
0000
0000
0000
0000
0000
0000
0000
0000
ENDCHAR

STARTCHAR multiply
ENCODING 215
SWIDTH 361 0
DWIDTH 14 0
BBX 14 40 0 -10
BITMAP
0000
0000
0000
0000
0000
0000
0000
0000
0000
0000
0000
0000
0000
0000
2010
3030
1860
0CC0
0780
0300
0780
0CC0
1860
3030
2010
0000
0000
0000
0000
0000
0000
0000
0000
0000
0000
0000
0000
0000
0000
0000
ENDCHAR

STARTCHAR Rcaron
ENCODING 216
SWIDTH 361 0
DWIDTH 14 0
BBX 14 40 0 -10
BITMAP
0000
6060
39C0
1F80
0F00
0600
0000
0000
FFC0
FFE0
3060
3030
3030
3030
3030
3030
3030
3060
3FE0
3FC0
30C0
30C0
3060
3060
3060
3030
3030
3030
FC1C
FC1C
0000
0000
0000
0000
0000
0000
0000
0000
0000
0000
ENDCHAR

STARTCHAR Uring
ENCODING 217
SWIDTH 361 0
DWIDTH 14 0
BBX 14 40 0 -10
BITMAP
0780
0FC0
1860
1860
1860
1860
0FC0
0780
FCFC
FCFC
3030
3030
3030
3030
3030
3030
3030
3030
3030
3030
3030
3030
3030
3030
3030
3030
3030
1860
1FE0
0780
0000
0000
0000
0000
0000
0000
0000
0000
0000
0000
ENDCHAR

STARTCHAR Uacute
ENCODING 218
SWIDTH 361 0
DWIDTH 14 0
BBX 14 40 0 -10
BITMAP
00C0
01E0
03C0
0700
0E00
1800
0000
0000
FCFC
FCFC
3030
3030
3030
3030
3030
3030
3030
3030
3030
3030
3030
3030
3030
3030
3030
3030
3030
1860
1FE0
0780
0000
0000
0000
0000
0000
0000
0000
0000
0000
0000
ENDCHAR

STARTCHAR Uhungarumlaut
ENCODING 219
SWIDTH 361 0
DWIDTH 14 0
BBX 14 40 0 -10
BITMAP
0618
0F3C
1E78
38E0
71C0
C300
0000
0000
FCFC
FCFC
3030
3030
3030
3030
3030
3030
3030
3030
3030
3030
3030
3030
3030
3030
3030
3030
3030
1870
1FE0
0780
0000
0000
0000
0000
0000
0000
0000
0000
0000
0000
ENDCHAR

STARTCHAR Udieresis
ENCODING 220
SWIDTH 361 0
DWIDTH 14 0
BBX 14 40 0 -10
BITMAP
0000
3030
3030
3030
3030
0000
0000
0000
FCFC
FCFC
3030
3030
3030
3030
3030
3030
3030
3030
3030
3030
3030
3030
3030
3030
3030
3030
3030
3870
1FE0
0780
0000
0000
0000
0000
0000
0000
0000
0000
0000
0000
ENDCHAR

STARTCHAR Yacute
ENCODING 221
SWIDTH 361 0
DWIDTH 14 0
BBX 14 40 0 -10
BITMAP
00C0
01E0
03C0
0700
0E00
1800
0000
0000
FCFC
FCFC
3030
3030
1860
1860
1860
0CC0
0CC0
0CC0
0CC0
0780
0780
0780
0300
0300
0300
0300
0300
0300
3FF0
3FF0
0000
0000
0000
0000
0000
0000
0000
0000
0000
0000
ENDCHAR

STARTCHAR Tcommaaccent
ENCODING 222
SWIDTH 361 0
DWIDTH 14 0
BBX 14 40 0 -10
BITMAP
0000
0000
0000
0000
0000
0000
0000
0000
7FF8
7FF8
6318
6318
6318
6318
6318
6318
0300
0300
0300
0300
0300
0300
0300
0300
0300
0300
0300
0300
1FE0
1FE0
0000
0100
0380
0380
0180
0100
0300
0000
0000
0000
ENDCHAR

STARTCHAR germandbls
ENCODING 223
SWIDTH 361 0
DWIDTH 14 0
BBX 14 40 0 -10
BITMAP
0000
0000
0000
0000
0000
0000
07E0
0FF0
1838
1818
1818
1818
1818
1818
1818
1830
19E0
19F0
1830
1818
1818
1818
1818
1818
1818
1818
1818
1838
79F0
79E0
0000
0000
0000
0000
0000
0000
0000
0000
0000
0000
ENDCHAR

STARTCHAR racute
ENCODING 224
SWIDTH 361 0
DWIDTH 14 0
BBX 14 40 0 -10
BITMAP
0000
0000
0000
0000
00C0
01E0
03C0
0700
0E00
1800
0000
0000
79F0
7BF8
1E38
1C18
1800
1800
1800
1800
1800
1800
1800
1800
1800
1800
1800
1800
7FC0
7FC0
0000
0000
0000
0000
0000
0000
0000
0000
0000
0000
ENDCHAR

STARTCHAR aacute
ENCODING 225
SWIDTH 361 0
DWIDTH 14 0
BBX 14 40 0 -10
BITMAP
0000
0000
0000
0000
00C0
01E0
03C0
0700
0E00
1800
0000
0000
0F80
3FC0
70E0
6060
0060
0060
0FE0
3FE0
3060
6060
6060
6060
6060
6060
60E0
71E0
3F78
1E78
0000
0000
0000
0000
0000
0000
0000
0000
0000
0000
ENDCHAR

STARTCHAR acircumflex
ENCODING 226
SWIDTH 361 0
DWIDTH 14 0
BBX 14 40 0 -10
BITMAP
0000
0000
0000
0000
0000
0300
0780
0FC0
1CE0
3030
0000
0000
0F80
3FC0
70E0
6060
0060
0060
0FE0
3FE0
3060
6060
6060
6060
6060
6060
60E0
71E0
3F78
1E78
0000
0000
0000
0000
0000
0000
0000
0000
0000
0000
ENDCHAR

STARTCHAR abreve
ENCODING 227
SWIDTH 361 0
DWIDTH 14 0
BBX 14 40 0 -10
BITMAP
0000
0000
0000
0000
0000
30C0
30C0
39C0
1F80
0F00
0000
0000
0F80
3FC0
70E0
6060
0060
0060
0FE0
3FE0
3060
6060
6060
6060
6060
6060
60E0
71E0
3F78
1E78
0000
0000
0000
0000
0000
0000
0000
0000
0000
0000
ENDCHAR

STARTCHAR adieresis
ENCODING 228
SWIDTH 361 0
DWIDTH 14 0
BBX 14 40 0 -10
BITMAP
0000
0000
0000
0000
0000
3030
3030
3030
3030
0000
0000
0000
0F80
3FC0
70E0
6060
0060
0060
0FE0
3FE0
3060
6060
6060
6060
6060
6060
60E0
71E0
3F78
1E78
0000
0000
0000
0000
0000
0000
0000
0000
0000
0000
ENDCHAR

STARTCHAR lacute
ENCODING 229
SWIDTH 361 0
DWIDTH 14 0
BBX 14 40 0 -10
BITMAP
00C0
01E0
03C0
0700
0E00
1800
3F00
3F00
0300
0300
0300
0300
0300
0300
0300
0300
0300
0300
0300
0300
0300
0300
0300
0300
0300
0300
0300
0300
3FF0
3FF0
0000
0000
0000
0000
0000
0000
0000
0000
0000
0000
ENDCHAR

STARTCHAR cacute
ENCODING 230
SWIDTH 361 0
DWIDTH 14 0
BBX 14 40 0 -10
BITMAP
0000
0000
0000
0000
0060
00F0
01E0
0380
0600
0C00
0000
0000
07B0
1FF0
1870
3030
3030
3030
3000
3000
3000
3000
3000
3000
3000
3000
3030
1870
1FE0
0780
0000
0000
0000
0000
0000
0000
0000
0000
0000
0000
ENDCHAR

STARTCHAR ccedilla
ENCODING 231
SWIDTH 361 0
DWIDTH 14 0
BBX 14 40 0 -10
BITMAP
0000
0000
0000
0000
0000
0000
0000
0000
0000
0000
0000
0000
07B0
1FF0
1870
3030
3030
3030
3000
3000
3000
3000
3000
3000
3000
3000
3030
1870
1FE0
0780
0300
0300
03E0
03F0
0030
0030
07F0
07E0
0000
0000
ENDCHAR

STARTCHAR ccaron
ENCODING 232
SWIDTH 361 0
DWIDTH 14 0
BBX 14 40 0 -10
BITMAP
0000
0000
0000
0000
0000
3030
1CE0
0FC0
0780
0300
0000
0000
07B0
1FF0
1870
3030
3030
3030
3000
3000
3000
3000
3000
3000
3000
3000
3030
1870
1FE0
0780
0000
0000
0000
0000
0000
0000
0000
0000
0000
0000
ENDCHAR

STARTCHAR eacute
ENCODING 233
SWIDTH 361 0
DWIDTH 14 0
BBX 14 40 0 -10
BITMAP
0000
0000
0000
0000
00C0
01E0
03C0
0700
0E00
1800
0000
0000
0780
1FE0
1860
3030
3030
3030
3030
3030
3FF0
3FF0
3000
3000
3000
3000
3030
1870
1FE0
0780
0000
0000
0000
0000
0000
0000
0000
0000
0000
0000
ENDCHAR

STARTCHAR eogonek
ENCODING 234
SWIDTH 361 0
DWIDTH 14 0
BBX 14 40 0 -10
BITMAP
0000
0000
0000
0000
0000
0000
0000
0000
0000
0000
0000
0000
0780
1FE0
1860
3030
3030
3030
3030
3030
3FF0
3FF0
3000
3000
3000
3000
3030
1870
1FE0
0780
0300
0600
0660
07E0
03C0
0000
0000
0000
0000
0000
ENDCHAR

STARTCHAR edieresis
ENCODING 235
SWIDTH 361 0
DWIDTH 14 0
BBX 14 40 0 -10
BITMAP
0000
0000
0000
0000
0000
3030
3030
3030
3030
0000
0000
0000
0780
1FE0
1860
3030
3030
3030
3030
3030
3FF0
3FF0
3000
3000
3000
3000
3030
1870
1FE0
0780
0000
0000
0000
0000
0000
0000
0000
0000
0000
0000
ENDCHAR

STARTCHAR ecaron
ENCODING 236
SWIDTH 361 0
DWIDTH 14 0
BBX 14 40 0 -10
BITMAP
0000
0000
0000
0000
0000
3030
1CE0
0FC0
0780
0300
0000
0000
0780
1FE0
1860
3030
3030
3030
3030
3030
3FF0
3FF0
3000
3000
3000
3000
3030
1870
1FE0
0780
0000
0000
0000
0000
0000
0000
0000
0000
0000
0000
ENDCHAR

STARTCHAR iacute
ENCODING 237
SWIDTH 361 0
DWIDTH 14 0
BBX 14 40 0 -10
BITMAP
0000
0000
0000
0000
00C0
01E0
03C0
0700
0E00
1800
0000
0000
3F00
3F00
0300
0300
0300
0300
0300
0300
0300
0300
0300
0300
0300
0300
0300
0300
3FF0
3FF0
0000
0000
0000
0000
0000
0000
0000
0000
0000
0000
ENDCHAR

STARTCHAR icircumflex
ENCODING 238
SWIDTH 361 0
DWIDTH 14 0
BBX 14 40 0 -10
BITMAP
0000
0000
0000
0000
0000
0600
0F00
1F80
39C0
6060
0000
0000
3F00
3F00
0300
0300
0300
0300
0300
0300
0300
0300
0300
0300
0300
0300
0300
0300
3FF0
3FF0
0000
0000
0000
0000
0000
0000
0000
0000
0000
0000
ENDCHAR

STARTCHAR dcaron
ENCODING 239
SWIDTH 361 0
DWIDTH 14 0
BBX 14 40 0 -10
BITMAP
0000
0000
0000
0000
0000
0000
03C8
03DC
00DC
00CC
00C8
00D8
1ED0
7FC0
61C0
C0C0
C0C0
C0C0
C0C0
C0C0
C0C0
C0C0
C0C0
C0C0
C0C0
C0C0
C0C0
61C0
7FF0
1EF0
0000
0000
0000
0000
0000
0000
0000
0000
0000
0000
ENDCHAR

STARTCHAR dcroat
ENCODING 240
SWIDTH 361 0
DWIDTH 14 0
BBX 14 40 0 -10
BITMAP
0000
0000
0000
0000
0000
0000
0C30
0F60
03C0
03C0
06C0
0C60
0060
0030
07B0
1FF0
1870
3030
3030
3030
3030
3030
3030
3030
3030
3030
3030
1860
1FE0
0780
0000
0000
0000
0000
0000
0000
0000
0000
0000
0000
ENDCHAR

STARTCHAR nacute
ENCODING 241
SWIDTH 361 0
DWIDTH 14 0
BBX 14 40 0 -10
BITMAP
0000
0000
0000
0000
0060
00F0
01E0
0380
0700
0C00
0000
0000
F3C0
F7E0
3C70
3830
3030
3030
3030
3030
3030
3030
3030
3030
3030
3030
3030
3030
FCFC
FCFC
0000
0000
0000
0000
0000
0000
0000
0000
0000
0000
ENDCHAR

STARTCHAR ncaron
ENCODING 242
SWIDTH 361 0
DWIDTH 14 0
BBX 14 40 0 -10
BITMAP
0000
0000
0000
0000
0000
3030
1CE0
0FC0
0780
0300
0000
0000
F3C0
F7E0
3C70
3830
3030
3030
3030
3030
3030
3030
3030
3030
3030
3030
3030
3030
FCFC
FCFC
0000
0000
0000
0000
0000
0000
0000
0000
0000
0000
ENDCHAR

STARTCHAR oacute
ENCODING 243
SWIDTH 361 0
DWIDTH 14 0
BBX 14 40 0 -10
BITMAP
0000
0000
0000
0000
00C0
01E0
03C0
0700
0E00
1800
0000
0000
0780
1FE0
1860
3030
3030
3030
3030
3030
3030
3030
3030
3030
3030
3030
3030
1860
1FE0
0780
0000
0000
0000
0000
0000
0000
0000
0000
0000
0000
ENDCHAR

STARTCHAR ocircumflex
ENCODING 244
SWIDTH 361 0
DWIDTH 14 0
BBX 14 40 0 -10
BITMAP
0000
0000
0000
0000
0000
0300
0780
0FC0
1CE0
3030
0000
0000
0780
1FE0
1860
3030
3030
3030
3030
3030
3030
3030
3030
3030
3030
3030
3030
1860
1FE0
0780
0000
0000
0000
0000
0000
0000
0000
0000
0000
0000
ENDCHAR

STARTCHAR ohungarumlaut
ENCODING 245
SWIDTH 361 0
DWIDTH 14 0
BBX 14 40 0 -10
BITMAP
0000
0000
0000
0000
0618
0F3C
1E78
38E0
71C0
C300
0000
0000
0780
1FE0
1860
3030
3030
3030
3030
3030
3030
3030
3030
3030
3030
3030
3030
1860
1FE0
0780
0000
0000
0000
0000
0000
0000
0000
0000
0000
0000
ENDCHAR

STARTCHAR odieresis
ENCODING 246
SWIDTH 361 0
DWIDTH 14 0
BBX 14 40 0 -10
BITMAP
0000
0000
0000
0000
0000
3030
3030
3030
3030
0000
0000
0000
0780
1FE0
1860
3030
3030
3030
3030
3030
3030
3030
3030
3030
3030
3030
3030
1860
1FE0
0780
0000
0000
0000
0000
0000
0000
0000
0000
0000
0000
ENDCHAR

STARTCHAR divide
ENCODING 247
SWIDTH 361 0
DWIDTH 14 0
BBX 14 40 0 -10
BITMAP
0000
0000
0000
0000
0000
0000
0000
0000
0000
0000
0000
0000
0300
0300
0300
0300
0000
0000
3FF0
3FF0
0000
0000
0300
0300
0300
0300
0000
0000
0000
0000
0000
0000
0000
0000
0000
0000
0000
0000
0000
0000
ENDCHAR

STARTCHAR rcaron
ENCODING 248
SWIDTH 361 0
DWIDTH 14 0
BBX 14 40 0 -10
BITMAP
0000
0000
0000
0000
0000
3030
1CE0
0FC0
0780
0300
0000
0000
79F0
7BF8
1E38
1C18
1800
1800
1800
1800
1800
1800
1800
1800
1800
1800
1800
1800
7FC0
7FC0
0000
0000
0000
0000
0000
0000
0000
0000
0000
0000
ENDCHAR

STARTCHAR uring
ENCODING 249
SWIDTH 361 0
DWIDTH 14 0
BBX 14 40 0 -10
BITMAP
0000
0000
0000
0780
0FC0
1860
1860
1860
1860
0FC0
0780
0000
F0F0
F0F0
3030
3030
3030
3030
3030
3030
3030
3030
3030
3030
3030
3030
3070
38F0
1FBC
0F3C
0000
0000
0000
0000
0000
0000
0000
0000
0000
0000
ENDCHAR

STARTCHAR uacute
ENCODING 250
SWIDTH 361 0
DWIDTH 14 0
BBX 14 40 0 -10
BITMAP
0000
0000
0000
0000
00C0
01E0
03C0
0700
0E00
1800
0000
0000
F0F0
F0F0
3030
3030
3030
3030
3030
3030
3030
3030
3030
3030
3030
3030
3070
38F0
1FBC
0F3C
0000
0000
0000
0000
0000
0000
0000
0000
0000
0000
ENDCHAR

STARTCHAR uhungarumlaut
ENCODING 251
SWIDTH 361 0
DWIDTH 14 0
BBX 14 40 0 -10
BITMAP
0000
0000
0000
0000
0618
0F3C
1E78
38E0
71C0
C300
0000
0000
F0F0
F0F0
3030
3030
3030
3030
3030
3030
3030
3030
3030
3030
3030
3030
3070
38F0
1FBC
0F3C
0000
0000
0000
0000
0000
0000
0000
0000
0000
0000
ENDCHAR

STARTCHAR udieresis
ENCODING 252
SWIDTH 361 0
DWIDTH 14 0
BBX 14 40 0 -10
BITMAP
0000
0000
0000
0000
0000
3060
3060
3060
3060
0000
0000
0000
F0F0
F0F0
3030
3030
3030
3030
3030
3030
3030
3030
3030
3030
3030
3030
3070
38F0
1FBC
0F3C
0000
0000
0000
0000
0000
0000
0000
0000
0000
0000
ENDCHAR

STARTCHAR yacute
ENCODING 253
SWIDTH 361 0
DWIDTH 14 0
BBX 14 40 0 -10
BITMAP
0000
0000
0000
0000
0000
0180
03C0
0780
0E00
1800
0000
0000
FCFC
FCFC
3030
3030
3030
3030
1860
1860
1860
1860
0CC0
0CC0
0CC0
0CC0
0780
0780
0300
0300
0300
0300
0600
0600
0600
0600
7F80
7F80
0000
0000
ENDCHAR

STARTCHAR tcommaaccent
ENCODING 254
SWIDTH 361 0
DWIDTH 14 0
BBX 14 40 0 -10
BITMAP
0000
0000
0000
0000
0000
0000
0000
0000
1800
1800
1800
1800
7FE0
7FE0
1800
1800
1800
1800
1800
1800
1800
1800
1800
1800
1800
1800
1818
1C78
0FF0
07C0
0000
0100
0380
0380
0180
0100
0300
0000
0000
0000
ENDCHAR

STARTCHAR dotaccent
ENCODING 255
SWIDTH 361 0
DWIDTH 14 0
BBX 14 40 0 -10
BITMAP
0000
0000
0000
0000
0000
0300
0300
0300
0300
0000
0000
0000
0000
0000
0000
0000
0000
0000
0000
0000
0000
0000
0000
0000
0000
0000
0000
0000
0000
0000
0000
0000
0000
0000
0000
0000
0000
0000
0000
0000
ENDCHAR
ENDFONT
